<svg xmlns="http://www.w3.org/2000/svg" xmlns:xlink="http://www.w3.org/1999/xlink" width="1080" height="1080" viewBox="0 0 1080 1080"><defs><clipPath id="b"><rect width="1080" height="1080"/></clipPath></defs><g id="a" clip-path="url(#b)"><text transform="translate(63 810)" fill="#f3eef4" font-size="40" font-family="Roboto-Regular, Roboto"><tspan x="0" y="37">helps to create innovative solutions quicker and </tspan><tspan x="0" y="84">keep up with the accelerating change we witness </tspan><tspan x="0" y="131">around us.</tspan></text><text transform="translate(63 586)" fill="#f3eef4" font-size="40" font-family="Roboto-Regular, Roboto"><tspan x="0" y="37">is human-centered and helps to develop solutions </tspan><tspan x="0" y="84">that are tailored to your company, your people and </tspan><tspan x="0" y="131">your customers.</tspan></text><text transform="translate(63 362)" fill="#f3eef4" font-size="40" font-family="Roboto-Regular, Roboto"><tspan x="0" y="37">connects people across organizational units and </tspan><tspan x="0" y="84">hierarchies in a guided process to solve complex </tspan><tspan x="0" y="131">challenges using a creative approach.</tspan></text><text transform="translate(63 180)" fill="#f3eff5" font-size="70" font-family="LondrinaSolid-Light, Londrina Solid" font-weight="300" letter-spacing="0.01em"><tspan x="0" y="0">THE METHODS I USE</tspan></text><text transform="translate(63 569)" fill="#f3eef4" font-size="47" font-family="Roboto-Bold, Roboto" font-weight="700"><tspan x="0" y="0">Experience Design</tspan></text><text transform="translate(63 345)" fill="#f3eef4" font-size="47" font-family="Roboto-Bold, Roboto" font-weight="700"><tspan x="0" y="0">Design Thinking</tspan></text><text transform="translate(63 793)" fill="#f3eef4" font-size="47" font-family="Roboto-Bold, Roboto" font-weight="700"><tspan x="0" y="0">Agile Workstyle</tspan></text><g transform="translate(23.794 45.786)"><g transform="translate(707.652 0.376)"><path d="M295.885,851.446l1.931.035c2.643.053,5.283.082,7.923.113l8.118.092c2.629.028,5.266,0,7.891.163.794.046,1.587.142,2.378.266.709.113,1.389.3,2.076.482s1.3.266,1.949.422,1.343.3,1.995.507c.312.1.617.213.928.323s.733.23,1.1.354c.3.1.6.216.9.337.393.163.794.308,1.18.489a10.956,10.956,0,0,1,1.651.9,7.119,7.119,0,0,1,1.159.974,6.584,6.584,0,0,1,.772,1.024,6.739,6.739,0,0,1,.51,1.123,8.353,8.353,0,0,1,.354.939,10.277,10.277,0,0,1,.372,1.247,9.629,9.629,0,0,1,.163,1.269,14.451,14.451,0,0,1-.11,2.069c-.064.641-.181,1.272-.291,1.91-.035.422-.039.85-.057,1.279-.021.493-.06.989-.1,1.481-.092,1.063-.255,2.126-.408,3.189-.085.709-.135,1.417-.223,2.126-.1.769-.234,1.531-.354,2.3-.089.819-.184,1.641-.322,2.456s-.3,1.58-.464,2.367c-.283,1.368-.489,2.75-.684,4.135-.085.688-.145,1.379-.223,2.066-.085.741-.2,1.481-.322,2.218s-.23,1.417-.354,2.126-.308,1.393-.485,2.08-.354,1.417-.574,2.108-.418,1.354-.645,2.023-.429,1.3-.659,1.949-.447,1.276-.648,1.921c-.163.51-.33,1.024-.524,1.524-.23.588-.493,1.166-.758,1.74s-.5,1.038-.755,1.556-.446.957-.709,1.417a13.109,13.109,0,0,1-2,2.775,5.063,5.063,0,0,1-1.152.854c-.223.124-.464.22-.691.333-.546.273-1.109.5-1.676.734-.744.319-1.488.638-2.243.935-.372.149-.737.294-1.12.411s-.787.266-1.191.354c-.776.2-1.549.4-2.339.56a12.894,12.894,0,0,1-1.811.163c-.383.021-.762.057-1.141.1-.447.067-.886.145-1.329.223-.581.1-1.169.142-1.772.206-.248.046-.493.1-.737.156a7.217,7.217,0,0,1-1.417.191c-.556.025-1.109.071-1.662.135-.354.057-.709.117-1.081.181-.471.085-.946.127-1.417.181-.294.046-.585.1-.875.156a4.885,4.885,0,0,1-.985.106h-.464a15.208,15.208,0,0,0-1.754.035c-.2.032-.39.071-.585.12a8.913,8.913,0,0,1-1.01.2,5.136,5.136,0,0,1-.741,0q-.244,0-.489.021l-.145.035h-.018c-.092.163-.159.354-.241.507s-.195.354-.287.535a11.2,11.2,0,0,1-.446,1.063c-.156.315-.315.627-.454.95-.276.634-.624,1.229-.95,1.839s-.734,1.223-1.109,1.828q-.507.808-1,1.616a21.33,21.33,0,0,1-6,6.187c-.79.549-1.6,1.063-2.4,1.6q-1.329.893-2.643,1.8a1.041,1.041,0,0,1-.68.174,1.293,1.293,0,0,1-1.371.05,1.279,1.279,0,0,1-.457-1.743c.248-.379.528-.737.772-1.12.11-.167.2-.354.291-.517s.248-.411.354-.624a17.714,17.714,0,0,1,1.867-2.573,5.622,5.622,0,0,0,.425-.631c.124-.227.234-.461.354-.709.273-.709.475-1.449.73-2.169a9.239,9.239,0,0,0,.248-1.063c.1-.457.255-.9.354-1.364s.106-.858.195-1.279c.074-.354.184-.709.262-1.063s.074-.652.128-.974.121-.56.177-.84a.436.436,0,0,0,0-.067,5.9,5.9,0,0,0-.252-.992,4.808,4.808,0,0,0-.259-.454c-.078-.085-.156-.17-.241-.252a2.092,2.092,0,0,0-.411-.234l-.106-.035c-.709,0-1.417.028-2.126.025-.794,0-1.588,0-2.381-.039-.865-.028-1.722-.11-2.58-.223-.563-.074-1.12-.159-1.676-.266-.354-.067-.726-.142-1.091-.2-.726-.067-1.449-.145-2.169-.252-.634-.1-1.261-.237-1.9-.354s-1.2-.128-1.793-.22-1.2-.227-1.807-.33a18.1,18.1,0,0,1-1.942-.3c-.574-.131-1.141-.294-1.719-.418a10.169,10.169,0,0,1-1.722-.553c-.617-.252-1.23-.5-1.839-.776l-.259-.106-.588-.251c-.4-.16-.783-.354-1.169-.517s-.822-.333-1.219-.528-.772-.354-1.141-.567-.641-.354-.971-.514a4.053,4.053,0,0,1-.865-.627,3.41,3.41,0,0,1-.478-.482c-.188-.245-.354-.51-.532-.751a3.634,3.634,0,0,1-.326-.507c-.184-.333-.443-.62-.641-.943s-.354-.532-.51-.815a8.894,8.894,0,0,1-.471-1.063c-.128-.283-.266-.563-.372-.854a9.811,9.811,0,0,1-.4-1.166c-.067-.294-.159-.585-.23-.879a6.149,6.149,0,0,1-.138-1.417v-3.423c0-2.417-.035-4.837-.032-7.257,0-2.679.032-5.358.053-8.04a60,60,0,0,1,.432-8.366c.067-.461.145-.918.22-1.378.082-.68.145-1.361.245-2.037s.23-1.286.354-1.924.216-1.343.354-2.009a16.843,16.843,0,0,1,.606-1.9c.145-.415.312-.815.482-1.215.124-.291.245-.588.383-.872a8.6,8.6,0,0,1,.439-.79,8.437,8.437,0,0,1,.964-1.379c.411-.45.843-.886,1.272-1.322a7.222,7.222,0,0,1,1.665-1.322c.22-.117.45-.213.67-.33a8.424,8.424,0,0,1,.985-.439,8.816,8.816,0,0,1,1.091-.475c.383-.12.755-.28,1.137-.415s.85-.241,1.272-.354c.184-.053.354-.113.553-.156.245-.053.493-.085.744-.117.354-.053.709-.12,1.063-.209.422-.106.836-.248,1.272-.315a11.7,11.7,0,0,0,1.254-.252c.4-.1.776-.241,1.187-.315s.84-.184,1.258-.287.833-.188,1.261-.251.9-.152,1.35-.245c.553-.114,1.106-.206,1.665-.28l-.333.042c.67-.092,1.336-.223,2-.337.769-.135,1.556-.181,2.328-.276l.294-.042.315-.042.223-.028h.021l.656-.081c.354-.042.709-.042,1.081-.05a42.566,42.566,0,0,0,4.507-.294c.748-.11,1.5-.227,2.247-.319s1.531-.152,2.3-.241c.709-.1,1.4-.227,2.1-.3s1.463-.149,2.2-.205c.259,0,.517-.025.78-.025.457,0,.918.021,1.371.028Zm23.95,2.888h-4q-4.068.032-8.125.081c-2.636.036-5.276.064-7.913.1-1.3,0-2.608.05-3.9.074-.709,0-1.435,0-2.151.06-.656.046-1.308.138-1.96.22-.585.092-1.166.205-1.75.291q-1.2.17-2.4.3c-1.46.213-2.909.478-4.38.609-.726.064-1.456.1-2.186.128-.638.025-1.265.036-1.9.1a1.524,1.524,0,0,1-.354.05c-.783.11-1.57.216-2.356.3-.354.057-.709.124-1.063.191-.454.085-.911.149-1.368.209-.9.16-1.772.354-2.686.493-.4.064-.8.184-1.2.287-.461.121-.936.195-1.393.319s-.8.248-1.208.354-.829.128-1.233.241-.836.237-1.265.326-.9.142-1.361.191c-.319.064-.634.142-.953.205a11.6,11.6,0,0,0-1.237.287c-.354.117-.758.188-1.12.33s-.709.234-1.063.354c-.28.128-.563.252-.85.354a4.776,4.776,0,0,0-.471.269c-.294.252-.574.514-.85.78-.354.354-.751.684-1.088,1.063-.259.386-.514.776-.744,1.18a9.927,9.927,0,0,0-.542,1.2l.064-.149a17.779,17.779,0,0,0-.992,3.4c-.17,1.063-.4,2.1-.563,3.154-.074.648-.131,1.3-.234,1.945-.085.539-.174,1.063-.248,1.616a67.421,67.421,0,0,0-.273,7.937c0,2.643.039,5.347.039,8.019,0,1.811-.018,3.615-.025,5.422v2.459c0,.9-.025,1.807,0,2.711.039.184.085.354.138.546.081.3.145.609.255.9l.213.521c.159.354.322.709.464,1.063.085.174.174.354.266.51s.248.379.354.574a8.089,8.089,0,0,0,.464.684c.159.223.315.531.5.783l-.23-.3a6.381,6.381,0,0,1,.5.709,4.107,4.107,0,0,0,.354.354c.383.245.811.425,1.2.652s.9.45,1.347.656c.213.085.425.167.634.255.276.113.549.237.822.354.354.142.709.3,1.063.447l.106.046h0l.84.372c.273.11.539.227.808.354a8.271,8.271,0,0,0,.992.354c.34.092.751.167,1.127.255s.73.2,1.1.283.68.135,1.024.188c.524.064,1.063.131,1.57.227.393.074.787.149,1.184.213.677.078,1.357.138,2.034.234.6.082,1.194.209,1.793.3.489.053.978.092,1.471.127.62.046,1.244.174,1.864.273a64.855,64.855,0,0,0,6.995.223c.266,0,.532,0,.794.021a2.837,2.837,0,0,1,.9.145c.244.1.481.209.708.322a4.027,4.027,0,0,1,.521.329,3.218,3.218,0,0,1,.78.709,6.247,6.247,0,0,1,.663.95,5.447,5.447,0,0,1,.578,1.786c.039.252.067.5.089.755a3.4,3.4,0,0,1-.131,1.063c-.078.319-.163.631-.22.953s-.064.556-.124.833c-.039.177-.106.354-.156.531a8.685,8.685,0,0,0-.2,1,6.113,6.113,0,0,1-.152.946c-.05.191-.106.383-.163.574q-.143.525-.234,1.063a7.919,7.919,0,0,1-.308,1.024c-.113.354-.213.684-.354,1.021-.163.436-.3.865-.5,1.29a6.957,6.957,0,0,1-.553,1.01c0,.025-.032.046-.046.067.468-.315.932-.641,1.382-.981a23.132,23.132,0,0,0,1.949-1.733c.524-.535,1.02-1.088,1.492-1.669.4-.556.78-1.134,1.152-1.712.415-.638.84-1.269,1.251-1.91s.85-1.382,1.251-2.087c.17-.3.315-.62.475-.928s.354-.67.524-1.013a5.522,5.522,0,0,1,.354-.783,4.334,4.334,0,0,1,.3-.425,6.847,6.847,0,0,1,.57-.815,2.094,2.094,0,0,1,1.113-.606,13.974,13.974,0,0,1,1.488-.174c.354-.085.691-.22,1.042-.319a8.979,8.979,0,0,1,1.191-.205c.6-.074,1.2-.113,1.811-.159.454-.1.9-.241,1.35-.333.28-.057.563-.1.843-.156s.454-.113.684-.167a27.119,27.119,0,0,1,3.246-.514c.4-.089.783-.23,1.184-.312.457-.092.918-.149,1.382-.2.641-.117,1.279-.269,1.924-.39a25.071,25.071,0,0,1,2.573-.294c.234-.05.468-.113.709-.163.3-.067.606-.138.907-.223.517-.149,1.031-.28,1.541-.439s1.1-.354,1.637-.553,1.063-.39,1.595-.613l-.372.159c.553-.234,1.113-.443,1.669-.666.354-.16.709-.319,1.063-.471l-.092.039c.184-.1.354-.191.542-.3a8.047,8.047,0,0,0,.758-.794c.259-.354.5-.709.744-1.063a15.27,15.27,0,0,0,.772-1.371c.5-.964.978-1.931,1.439-2.916.447-1.137.8-2.317,1.215-3.465.461-1.272.868-2.562,1.279-3.852.209-.663.383-1.336.56-2.009s.354-1.417.517-2.165c.131-.649.22-1.3.333-1.956s.216-1.261.308-1.892c.11-.889.206-1.772.354-2.661s.259-1.662.418-2.48c.312-1.669.709-3.32.957-5,.071-.6.135-1.2.234-1.8s.2-1.169.283-1.772c.085-.709.135-1.417.244-2.126s.216-1.371.312-2.055q.17-1.357.259-2.721a11.2,11.2,0,0,1,.191-1.577c.081-.386.156-.769.216-1.155s.092-.8.12-1.208a7.259,7.259,0,0,0,.028-.734,4.955,4.955,0,0,0-.043-.51,5.86,5.86,0,0,0-.177-.815l-.17-.528c-.106-.33-.234-.656-.354-.982a7.868,7.868,0,0,0-.539-.971,5.444,5.444,0,0,0-.673-.709,8.2,8.2,0,0,0-.865-.56c-.319-.17-.641-.329-.967-.482a18.954,18.954,0,0,0-2.126-.758c-.4-.113-.8-.252-1.2-.379a11.864,11.864,0,0,0-1.3-.315c-.769-.152-1.527-.354-2.3-.468-.847-.138-1.673-.354-2.523-.5a34.869,34.869,0,0,0-3.848-.191Zm-21.948,63.311h0Zm-.131.071a.1.1,0,0,0-.028.025Zm-11.874,1.276v.046A.184.184,0,0,0,285.882,918.992ZM283,929.328l-.128.167Zm-23.369-16.165.145.06-.354-.149Z" transform="translate(-104.914 -851.4)" fill="#f3eff5"/><path d="M318.93,900.108H320.3c1.279,0,2.562,0,3.841.018,3.724.06,7.441.12,11.169.269q2.888.117,5.769.255c.889.042,1.772.042,2.668.064l2.643.053c.978,0,1.956.053,2.938.082a.733.733,0,1,1,0,1.467q-2.792-.081-5.581-.12c-.889,0-1.772,0-2.668-.05l-3.189-.135q-5.071-.209-10.148-.245c-1.853,0-3.7-.035-5.556-.025h-3.253c-.875,0-1.754.043-2.629.064-1.665.042-3.334.085-5,.206-.875.064-1.751.128-2.622.2s-1.772.135-2.636.237l-10.967,1.315-2.884.354a.815.815,0,0,1-.613-.252.864.864,0,0,1-.252-.609.875.875,0,0,1,.252-.609l.177-.135a.846.846,0,0,1,.436-.117q5.581-.737,11.169-1.417l2.682-.312c.875-.1,1.772-.149,2.636-.22s1.747-.12,2.622-.174,1.772-.074,2.647-.1c.783-.021,1.57-.035,2.353-.05.836,0,1.673-.035,2.505-.035Z" transform="translate(-130.571 -882.837)" fill="#f3eff5"/><path d="M354.771,933.784a1.552,1.552,0,0,1-1.538,1.534l-6.063.1c-1.641.028-3.274.124-4.911.2-3.685.167-7.37.312-11.056.489-6.857.333-13.727.439-20.595.478-3.15.021-6.3,0-9.436-.291a1.666,1.666,0,0,1-1.1-.454,1.577,1.577,0,0,1-.454-1.1,1.556,1.556,0,0,1,1.552-1.552c3.543.227,7.126.106,10.691.092,3.366,0,6.733,0,10.1-.067,3.6-.067,7.2-.156,10.79-.312s7.264-.276,10.9-.432c1.474-.06,2.945-.113,4.422-.138l5.145-.081h.028a1.545,1.545,0,0,1,1.51,1.534Z" transform="translate(-138.216 -903.601)" fill="#f3eff5"/><path d="M298.7,971.153c1.949.149,3.9.308,5.847.464,2.059.167,4.121.3,6.183.447l2.973.209c.932.064,1.867.092,2.8.135,1.772.078,3.543.1,5.315.11q6.123.042,12.243.053c3.66,0,7.321,0,10.985-.1l3.26-.085c1.006-.025,2.013-.078,3.019-.053,2.24.05,4.472.163,6.708.3a1.772,1.772,0,0,1,1.208.5,1.712,1.712,0,0,1-1.208,2.92c-2.069-.128-4.142-.237-6.215-.273-1.963-.035-3.93.078-5.889.142-3.657.124-7.314.195-10.985.241q-6.283.082-12.572.145h-5.014l-3.26-.1c-1.035-.032-2.066-.124-3.1-.184-2.045-.12-4.093-.266-6.13-.461s-4.114-.411-6.173-.6a2.034,2.034,0,0,1-1.346-.56,1.906,1.906,0,0,1,0-2.693,1.881,1.881,0,0,1,1.258-.563Z" transform="translate(-142.193 -928.717)" fill="#f3eff5"/><path d="M120.5,1201.55a6.015,6.015,0,0,1,.62.021,39.39,39.39,0,0,1,5.769.655c.4.082.8.223,1.208.308s.8.177,1.2.283a19.532,19.532,0,0,1,2.867,1.017,13.3,13.3,0,0,1,2.016,1.113c.418.28.826.571,1.222.882.3.238.6.489.9.73a20.175,20.175,0,0,1,3.359,3.214c.56.709,1.106,1.417,1.6,2.186.432.663.833,1.364,1.2,2.066a17.808,17.808,0,0,1,1.152,2.672,11.078,11.078,0,0,1,.283,1.084c.039.159.057.333.081.5a6.615,6.615,0,0,1,.1,1.347c-.046.829-.113,1.658-.223,2.48a27.33,27.33,0,0,1-.56,2.927c-.081.354-.135.709-.213,1.063a6.767,6.767,0,0,1-.567,1.5c-.354.709-.687,1.417-1.045,2.126s-.684,1.3-1.063,1.935a10.517,10.517,0,0,1-.918,1.279c-.3.354-.648.709-.974,1.038-.234.248-.457.517-.684.776-.273.315-.57.613-.854.921a18.31,18.31,0,0,1-1.885,1.821,22.477,22.477,0,0,0-1.857,1.676c-.259.259-.528.514-.794.769s-.5.489-.769.709c-.4.354-.8.709-1.2,1.035-.514.429-1.063.8-1.6,1.208l-.276.209c-.241.195-.475.4-.709.588l.156-.117c-.23.188-.461.354-.709.553a13.829,13.829,0,0,0-1.719,1.772,30.509,30.509,0,0,0-2.438,4.316,1.373,1.373,0,0,1-2.371-1.385,38.287,38.287,0,0,1,2.523-4.557,15.6,15.6,0,0,1,1.6-1.949c.3-.315.627-.609.939-.918s.6-.588.911-.875.6-.507.9-.769.56-.521.829-.787c.507-.5.982-1.013,1.446-1.545.553-.634,1.1-1.261,1.7-1.853s1.152-1.106,1.708-1.68c.322-.333.634-.687.935-1.035s.62-.68.914-1.031c.539-.645,1.145-1.23,1.683-1.875.461-.656.861-1.347,1.279-2.031.213-.354.4-.709.592-1.063s.4-.769.581-1.159a12.186,12.186,0,0,0,.354-1.513c.117-.542.23-1.063.319-1.63a10.45,10.45,0,0,0,.092-1.524c.011-.51.043-1.134,0-1.7a9.683,9.683,0,0,0-.464-1.534,17.684,17.684,0,0,0-1.194-2.151c-.457-.709-.914-1.417-1.417-2.1l.12.156-.315-.415a23.514,23.514,0,0,0-2.094-2.271c-.439-.407-.911-.79-1.371-1.173-.308-.255-.617-.514-.928-.765-.39-.276-.787-.56-1.2-.8s-.9-.5-1.368-.709c-.386-.142-.783-.262-1.173-.393a10.665,10.665,0,0,0-1.308-.354c-.439-.085-.935-.216-1.4-.354a9.8,9.8,0,0,0-1.247-.241c-.741-.089-1.481-.167-2.225-.216a17.854,17.854,0,0,0-2.385-.053,10.588,10.588,0,0,0-1.839.461l-.826.354c-.461.209-.921.415-1.389.6-.354.156-.67.312-1,.478a5.849,5.849,0,0,0-.819.528,14.2,14.2,0,0,0-1.4,1.212c-.436.454-.843.932-1.24,1.417-.191.262-.383.531-.563.8-.227.354-.468.709-.659,1.063-.322.6-.634,1.208-.914,1.829-.354.925-.606,1.874-.893,2.835a20.049,20.049,0,0,0-.645,2.679c-.1.953-.138,1.906-.159,2.867a24.781,24.781,0,0,0,0,2.81,11.117,11.117,0,0,0,.291,1.2c.142.464.248.939.376,1.417.145.528.291,1.063.4,1.587s.177,1.063.241,1.595c.089.468.213.925.3,1.393s.156.985.213,1.481a13.815,13.815,0,0,0,.709,2.48c.159.393.283.794.422,1.2.06.177.131.354.2.535.092.241.17.489.259.73a8.22,8.22,0,0,0,.436.826,7.906,7.906,0,0,1,.613,1.527,1.6,1.6,0,0,1-1.97,1.97,1.556,1.556,0,0,1-.957-.737,6.139,6.139,0,0,0-.549-.95c-.074-.092-.149-.188-.22-.284a6.374,6.374,0,0,1-.627-.879,8.449,8.449,0,0,1-.354-.776c-.163-.315-.308-.638-.45-.964l.018.039a17.279,17.279,0,0,1-1.042-2.448c-.081-.323-.177-.638-.259-.96a7.792,7.792,0,0,1-.184-1.063c-.074-.436-.167-.865-.276-1.293-.057-.22-.117-.436-.159-.652-.06-.3-.1-.609-.138-.914a22.941,22.941,0,0,0-.535-2.445c-.1-.375-.181-.755-.291-1.127a12.015,12.015,0,0,1-.354-1.308,10.3,10.3,0,0,1-.2-1.68v-1.307c0-.779,0-1.559.028-2.339a20.967,20.967,0,0,1,.312-3.012,24.088,24.088,0,0,1,.613-2.4c.255-.868.535-1.719.826-2.573a17.719,17.719,0,0,1,1.155-2.48c.1-.188.184-.386.294-.574s.252-.408.379-.613c.237-.393.478-.78.744-1.155.354-.493.726-.957,1.109-1.417.28-.326.542-.663.836-.974a16.448,16.448,0,0,1,1.913-1.7,10.092,10.092,0,0,1,1.393-.925,14.812,14.812,0,0,1,1.382-.638c.354-.167.741-.354,1.116-.5l-.23.1c.507-.23,1-.475,1.517-.687a9.948,9.948,0,0,1,1.013-.323c.326-.089.677-.128,1.01-.184a8.086,8.086,0,0,1,1.339-.135Zm16.708,12.207.195.252Z" transform="translate(141.894 -1077.475)" fill="#f3eff5"/><path d="M144.683,1327.541c.886.241,1.772.514,2.651.744q1.247.326,2.505.609c1.683.383,3.366.769,5.007,1.3a44.016,44.016,0,0,0,4.844,1.215c1.665.354,3.331.67,4.989,1.021.56.117,1.123.213,1.676.354q.953.244,1.91.475c1.3.3,2.612.574,3.923.85a1.417,1.417,0,0,1,.989,1.74,1.442,1.442,0,0,1-1.74.989c-1.726-.354-3.451-.709-5.17-1.116-1.485-.354-3-.549-4.5-.766s-3.054-.39-4.571-.648c-.677-.113-1.354-.241-2.023-.39s-1.417-.376-2.154-.539c-1.559-.354-3.125-.648-4.7-.957a37.684,37.684,0,0,1-4.66-1.173,2,2,0,0,1-1.148-.886,1.917,1.917,0,0,1-.195-1.481,1.945,1.945,0,0,1,1.871-1.417,1.978,1.978,0,0,1,.5.064Z" transform="translate(99.093 -1158.775)" fill="#f3eff5"/><path d="M156.908,1348.167a17.389,17.389,0,0,1,2.364.45l1.708.457c1.215.333,2.42.709,3.636,1.031s2.534.663,3.816.936c1.162.248,2.317.5,3.494.677s2.268.227,3.409.3a2.126,2.126,0,0,1,1.456.6,2.059,2.059,0,0,1-1.456,3.518c-1.772-.106-3.5-.287-5.241-.539-.758-.11-1.517-.294-2.264-.457s-1.538-.337-2.3-.531c-1.527-.4-3.044-.822-4.55-1.293-.726-.227-1.46-.425-2.183-.656-.8-.251-1.612-.471-2.392-.783a1.9,1.9,0,0,1,.386-3.717h.117Z" transform="translate(90.398 -1172.134)" fill="#f3eff5"/><path d="M171.331,1371.684c1.566.113,3.122.354,4.692.411.709.036,1.435.078,2.151.078.918,0,1.828-.064,2.739-.128a2.126,2.126,0,0,1,1.545.638,2.215,2.215,0,0,1,.638,1.545,2.183,2.183,0,0,1-.638,1.541,2.274,2.274,0,0,1-1.545.638c-.858.06-1.719.121-2.58.124-.772,0-1.538-.042-2.31-.1a21.321,21.321,0,0,1-5.205-.964,1.96,1.96,0,0,1-1.417-1.86,1.935,1.935,0,0,1,.567-1.364,1.9,1.9,0,0,1,1.269-.567Z" transform="translate(79.603 -1187.32)" fill="#f3eff5"/><path d="M151.04,1247.533a3.506,3.506,0,0,1,.4.138,4.611,4.611,0,0,1,.765.354,3.188,3.188,0,0,1,.9.861c.78,1.024.539,2.434.354,3.618a14.528,14.528,0,0,1-.5,2.126c-.2.67-.471,1.318-.734,1.967a20.037,20.037,0,0,1-1.1,2.335c-.546.974-1.024,1.991-1.513,2.994a26.63,26.63,0,0,1-1.548,2.757c-.624.96-1.286,1.9-1.963,2.835a17.875,17.875,0,0,0-1.8,2.877,29.417,29.417,0,0,0-1.084,4.986,1.375,1.375,0,0,1-.652.847,1.417,1.417,0,0,1-1.938-.51,1.517,1.517,0,0,1-.142-1.092,40.715,40.715,0,0,1,.953-4.7,9.132,9.132,0,0,1,.514-1.269c.184-.379.379-.744.585-1.113.354-.652.8-1.272,1.2-1.9.755-1.169,1.506-2.349,2.147-3.583s1.233-2.565,1.843-3.855c.3-.631.631-1.251.914-1.889l.135-.315a22.823,22.823,0,0,0,.8-2.193,18.962,18.962,0,0,0,.57-2.551c-.018.124-.035.245-.05.354a8.833,8.833,0,0,0,.1-.971c-.074-.043-.145-.085-.223-.124l-.081-.025c-.053.057-.11.11-.159.167a3.516,3.516,0,0,0-.2.354c-.429,1.109-.68,2.289-1.021,3.427a10.369,10.369,0,0,1-2.066,3.994,2.952,2.952,0,0,1-.829.648,1.971,1.971,0,0,1-.858.241,2.878,2.878,0,0,1-.673-.071,1.852,1.852,0,0,1-.765-.425,2.145,2.145,0,0,1-.493-.567c-.113-.209-.209-.422-.3-.638a7.582,7.582,0,0,1-.478-1.371,8.763,8.763,0,0,1-.159-1.584,8.377,8.377,0,0,1,.085-1.417,1.463,1.463,0,0,1-1.283-.223,3.231,3.231,0,0,1-.939-1.113c-.089-.181-.174-.354-.252-.553a1.128,1.128,0,0,1-.287-.025c.021.174.039.354.06.521.074.528.156,1.063.227,1.584.113.826.2,1.651.276,2.48q.191,2.126.177,4.274c0,1.357-.074,2.718-.12,4.078-.021.709-.043,1.385-.1,2.077-.06.8-.156,1.591-.259,2.385l-.053.383a1.417,1.417,0,0,1-.354.638,1.442,1.442,0,0,1-2.037,0,1.417,1.417,0,0,1-.422-1.021c.128-1.588.163-3.189.22-4.77s.138-3.136.177-4.706c.018-.744,0-1.492-.05-2.233s-.078-1.548-.149-2.321-.163-1.5-.255-2.25-.138-1.417-.181-2.144a5.1,5.1,0,0,1,.1-1.183,2.661,2.661,0,0,1,.291-.861,1.588,1.588,0,0,1,1.031-.748,1.7,1.7,0,0,1,.765,0q.117.021.234.053a2.324,2.324,0,0,1,1.332,1.006c.05.085.092.17.135.259a1.123,1.123,0,0,1,.528.174,2.008,2.008,0,0,1,.691.73c.1.188.174.386.255.585a3.3,3.3,0,0,0,.177.354,4.522,4.522,0,0,0,.5-.312c.05-.039.1-.078.149-.12.17-.135.337-.269.514-.393a1.868,1.868,0,0,1,.468-.216,1.356,1.356,0,0,1,.709,0,1.29,1.29,0,0,1,.73.563,1.517,1.517,0,0,1,.131,1.215c-.064.3-.195.609-.283.907a6.118,6.118,0,0,0-.17.982l.043-.312c-.05.4-.085.79-.1,1.191a6.688,6.688,0,0,0,.06,1.063,5.635,5.635,0,0,0,.195.737,10.778,10.778,0,0,0,.571-1.063,36.828,36.828,0,0,0,1.109-3.838,5.066,5.066,0,0,1,1.889-3.189,3.1,3.1,0,0,1,.776-.383,5.183,5.183,0,0,1,.84-.135h.142a3.8,3.8,0,0,1,.893.152Zm-.9,2.814.032.074a.386.386,0,0,0-.156.021h.156v0h0l-.032-.074Zm-.354.167h0Zm0,.046-.089.067Zm-10.56.11a.51.51,0,0,0,.035.046Zm5.95,6.116h0l.1.082ZM150.175,1250.406Z" transform="translate(120.762 -1107.066)" fill="#f3eff5"/><path d="M79.6,1315.469c1.772,1.991,3.579,3.965,5.191,6.1a34.748,34.748,0,0,1,2.006,2.9,33.621,33.621,0,0,1,1.772,3.14,2.71,2.71,0,0,1-4.256,3.285,26.208,26.208,0,0,1-1.648-2.048c-.33-.454-.613-.946-.911-1.417-.613-.978-1.276-1.913-1.96-2.835-.563-.709-1.13-1.417-1.715-2.1-.833-.985-1.722-1.931-2.587-2.9a3.023,3.023,0,0,1-.85-2.059,2.934,2.934,0,0,1,.85-2.062,3.033,3.033,0,0,1,2.126-.847,2.647,2.647,0,0,1,1.981.84Z" transform="translate(207.339 -1150.484)" fill="#f3eff5"/><path d="M42.572,1295.763c1.024.843,2.062,1.676,3.1,2.505,1.665,1.24,3.349,2.456,5.06,3.628.921.631,1.839,1.269,2.739,1.928.974.709,1.924,1.467,2.867,2.229a1.117,1.117,0,0,1,.294.5,1.148,1.148,0,0,1-.117.882,1.172,1.172,0,0,1-.687.525,1.116,1.116,0,0,1-.882-.117c-2.094-1.556-4.252-3.051-6.378-4.568s-4.11-3.065-6.105-4.674c-.507-.411-1.013-.829-1.517-1.247a1.084,1.084,0,0,1-.333-.8,1.137,1.137,0,0,1,1.13-1.13,1.209,1.209,0,0,1,.8.333Z" transform="translate(251.656 -1138.089)" fill="#f3eff5"/><path d="M35.924,1265c2.225.379,4.458.709,6.69,1.063.9.138,1.814.255,2.718.4,1.01.159,2.02.315,3.033.457l.276.035.4.053a1.5,1.5,0,0,1,.659,2.48,1.417,1.417,0,0,1-1.063.436c-2.257-.241-4.5-.574-6.75-.907s-4.525-.709-6.779-1.063a1.482,1.482,0,0,1-.914-.709,1.534,1.534,0,0,1-.152-1.176,1.509,1.509,0,0,1,.709-.911,1.394,1.394,0,0,1,.741-.2,2.747,2.747,0,0,1,.436.042Z" transform="translate(260.562 -1118.415)" fill="#f3eff5"/><path d="M54.471,1209.421a1.715,1.715,0,0,1,.609,2.328c-.539.833-1.1,1.637-1.722,2.417a20.649,20.649,0,0,1-1.7,1.825c-.273.269-.578.51-.865.765a16.107,16.107,0,0,1-2.1,1.566,24.5,24.5,0,0,1-4.064,1.832,1.67,1.67,0,0,1-1.336-.174,1.715,1.715,0,0,1-.79-1.031,1.747,1.747,0,0,1,.17-1.332,1.881,1.881,0,0,1,1.035-.794l1.527-.627a14.016,14.016,0,0,0,2.509-1.417,24.516,24.516,0,0,0,1.945-1.747,20.531,20.531,0,0,0,1.417-1.6q.524-.709,1.017-1.417a1.8,1.8,0,0,1,1.017-.783,1.612,1.612,0,0,1,.45-.06,1.714,1.714,0,0,1,.861.23Z" transform="translate(252.376 -1082.395)" fill="#f3eff5"/><path d="M107.972,1149.391a2.08,2.08,0,0,1,1.233.95c.067.163.138.326.209.492a2.127,2.127,0,0,1,0,1.1c-.33,2.126-.687,4.227-1.191,6.322-.12.493-.252.982-.383,1.474a13.665,13.665,0,0,1-1.237,3.019c-.532.992-1.166,1.921-1.772,2.863a2.356,2.356,0,0,1-1.354,1.042,2.268,2.268,0,0,1-2.562-3.331,29.984,29.984,0,0,0,2.2-3.717,24.076,24.076,0,0,0,.709-2.427c.174-.68.354-1.364.517-2.048.354-1.417.73-2.86,1.084-4.295a2.069,2.069,0,0,1,2.013-1.513,1.906,1.906,0,0,1,.528.071Z" transform="translate(177.589 -1043.752)" fill="#f3eff5"/><path d="M170.569,1137.02a1.875,1.875,0,0,1,.819,1.063c.709,1.889,1.417,3.763,2.094,5.67s1.254,3.721,1.945,5.556a1.921,1.921,0,0,1-.2,1.531,1.988,1.988,0,0,1-2.714.709,2.105,2.105,0,0,1-.911-1.187c-.677-1.793-1.269-3.611-1.857-5.436q-.943-2.934-1.793-5.893a1.793,1.793,0,0,1,1.244-2.19,1.772,1.772,0,0,1,1.371.181Z" transform="translate(87.729 -1035.655)" fill="#f3eff5"/><path d="M202.288,1176.081a99.773,99.773,0,0,0,9.156,4.879,2.261,2.261,0,0,1,1.063,1.393,2.335,2.335,0,0,1-1.63,2.87,2.481,2.481,0,0,1-1.8-.234c-1.591-.762-3.207-1.506-4.748-2.367q-1.063-.59-2.126-1.208a25.043,25.043,0,0,1-2.629-1.85,2.215,2.215,0,0,1-.354-2.686,2.271,2.271,0,0,1,1.945-1.1,2.08,2.08,0,0,1,1.088.3Z" transform="translate(39.645 -1060.837)" fill="#f3eff5"/><path d="M237.852,1213.641a38.031,38.031,0,0,1,4.961,2.091c1.541.79,3.044,1.651,4.56,2.48a2.169,2.169,0,1,1-2.186,3.742c-1.478-.819-2.941-1.658-4.433-2.452-1.293-.687-2.594-1.378-3.94-1.963h-.032l-.482-.206a1.963,1.963,0,0,1-.709-.709,2.041,2.041,0,0,1-.206-1.556,2.1,2.1,0,0,1,1.942-1.5,1.7,1.7,0,0,1,.542.089Z" transform="translate(-9.182 -1085.236)" fill="#f3eff5"/><path d="M244.05,1269c.489,0,.974,0,1.46.035s.928.067,1.393.11q1.609.138,3.221.3l.549.074a2.069,2.069,0,0,1,.918,3.458,2,2,0,0,1-1.467.606c-2.02-.2-4.043-.429-6.074-.454-.861,0-1.729.036-2.59.046l-3.253.042a1.974,1.974,0,0,1-1.4-3.37,2.05,2.05,0,0,1,1.4-.578l3.161-.177c.843-.046,1.694-.1,2.537-.1Z" transform="translate(-13.179 -1121.024)" fill="#f3eff5"/><path d="M246.121,958.1a2.127,2.127,0,0,1,1.318.464h1.095a1.314,1.314,0,0,1,1.251.939c.117,0,.22-.025.322-.032a1.223,1.223,0,0,1,1.063-.574,1.28,1.28,0,0,1,.648.167,1.315,1.315,0,0,1,.464,1.772l-.376.762c-.248.507-.5,1.013-.751,1.517l-.213.432a11.719,11.719,0,0,1-.928,1.644,16.771,16.771,0,0,1-1.57,1.914l-.315.315c-.184.184-.354.354-.542.56s-.354.429-.606.726l-.248.354c-.135.191-.269.379-.408.567q-.283.383-.574.755a4.659,4.659,0,0,1-1.173,1.017,6.9,6.9,0,0,1-1.715.709l-.23.071c-.443.142-.886.284-1.332.415a26.115,26.115,0,0,1-5.606.875c-1.58.117-3.189.156-4.755.195h-.8c-1.807.05-3.611.1-5.418.128-2.4.046-4.794.078-7.193.11l-2.7.039h-1.449c-1.2,0-2.434,0-3.65.074-.645.032-1.3.092-1.931.152l-.354.032-.57.053c-.571.053-1.141.1-1.708.17l-.152.021-2,.273a21.754,21.754,0,0,0-4.681,1.127l-.787.354c-.354.174-.741.354-1.116.507l.043-.021c-.408.184-.815.354-1.226.539s-.925.493-1.336.709c-.33.188-.709.415-1.1.68a10.246,10.246,0,0,0-.943.96l-.234.262a4.411,4.411,0,0,0-.3.354,9.17,9.17,0,0,0-.5.872c-.106.326-.2.663-.291.992-.064.223-.124.447-.191.666a15.345,15.345,0,0,0-.429,1.821,35.754,35.754,0,0,0-.128,3.7c0,.971,0,1.938,0,2.909v1.7l.021,4.252v2.633c0,.556,0,1.13.035,1.69l.082.553c.1.641.195,1.3.266,1.96.081.758.12,1.517.152,2.42.057,1.6.057,3.235.06,4.812v16a14.955,14.955,0,0,1-.124,1.612c-.128,1.028-.244,2.031-.308,3.054a3,3,0,0,1-.025.471c0,.291-.028.581-.053.872-.05.514-.117,1.021-.2,1.584l-.106.858c-.074.62-.152,1.261-.248,1.889-.071.443-.149.89-.227,1.332-.067.354-.131.734-.191,1.1-.071.45-.177.9-.28,1.336s-.206.872-.276,1.315c-.082.5-.174,1-.269,1.492-.067.354-.138.734-.2,1.1-.167.936-.354,1.772-.542,2.551s-.425,1.527-.648,2.264l-.11.354c-.142.461-.248.847-.354,1.219-.057.23-.1.461-.145.709-.032.159-.064.322-.1.482s-.1.429-.145.641c-.128.56-.259,1.137-.354,1.711l-.028.174c-.067.383-.131.762-.206,1.141-.046.223-.1.443-.152.666s-.1.443-.149.666c-.089.439-.191.875-.291,1.311s-.209.9-.3,1.354l-.2,1.01c-.117.578-.23,1.155-.354,1.733-.106.5-.237,1-.354,1.478-.092.354-.184.709-.269,1.063-.2.836-.4,1.7-.659,2.544-.152.489-.283.989-.415,1.474-.1.386-.206.769-.315,1.151-.081.28-.159.56-.237.84-.156.553-.312,1.1-.478,1.648l-.354,1.063c-.124.4-.248.79-.354,1.187a18.294,18.294,0,0,1-1.021,2.6c-.354.709-.709,1.435-1.088,2.126l-.057.11c-.174.333-.333.677-.489,1.01s-.33.709-.51,1.063c-.33.631-.62,1.269-.957,2.037l.039-.11c-.184.446-.386.893-.6,1.329-.082.17-.159.337-.234.507-.145.319-.294.648-.468.96-.223.4-.471.794-.709,1.173l-.174.28a15.876,15.876,0,0,1-1,1.4c-.241.315-.482.631-.726.943-.152.209-.294.425-.436.641l-.177.273c-.206.312-.432.616-.648.911l-.067.092c-.177.241-.354.489-.517.734a15.236,15.236,0,0,1-1.191,1.57,14.989,14.989,0,0,1-1.949,1.708c-.447.354-.9.68-1.35,1.017l-.755.56c-.638.535-1.233,1.013-1.821,1.463-.28.216-.585.443-.911.656-.262.17-.539.322-.808.475l-.2.113c-.631.354-1.385.769-2.169,1.127l-.071.032c-.709.315-1.417.645-2.1,1.021a18.383,18.383,0,0,0-1.938,1.311A20.908,20.908,0,0,1,153.4,1106c-.4.234-.829.45-1.24.655-.319.16-.634.319-.946.489-.436.241-.861.517-1.272.783-.237.152-.471.3-.709.45l-.354.234c-.174.11-.354.22-.521.323a11.352,11.352,0,0,1-1.52.709c-.436.184-.9.376-1.385.531-.284.089-.571.16-.843.223l-.9.354a1.141,1.141,0,0,1,.174-.089c-.978.429-2.006.843-2.913,1.212H144.4a34.269,34.269,0,0,1,4.791.5l1.393.209-.312-.028a52.081,52.081,0,0,1,11.86,2.665c.96.354,1.956.808,3.239,1.417a15.028,15.028,0,0,1,2.558,1.545,23.035,23.035,0,0,1,2.48,2.069l1,.992c.234.23.457.482.68.737l.326.354a25.837,25.837,0,0,1,2.02,2.452c.482.691.95,1.417,1.417,2.2a11.932,11.932,0,0,1,.606,1.2l.127.283c.237.524.482,1.063.67,1.612l.138.408.057.163a19.014,19.014,0,0,1,.709,2.335c.085.411.181.815.28,1.222v.053c.131.549.266,1.116.354,1.683.071.415.163.826.255,1.23v.05c.092.411.188.836.259,1.258a29.715,29.715,0,0,1,.337,3.345,1.589,1.589,0,0,1,.021.407c.035.872.053,1.719.067,2.612.021,1.137.028,2.279.032,3.416v1.772c0,.858.035,1.743.089,2.711,0,.294.032.585.053.879.046.741.1,1.478.1,2.215a2.368,2.368,0,0,1-.124.751c.149.3.287.563.422.783a7.416,7.416,0,0,0,.443.638,20.762,20.762,0,0,0,2.48,2.6c.709.624,1.506,1.244,2.2,1.772l.4.323.089.06a2.369,2.369,0,0,1,.989.422c.95.117,1.956.191,2.764.248l.6.046.354.025h.06c.978.074,1.991.149,2.984.156h17.391c4.557,0,9.248,0,13.866-.142,2.03-.057,4.054-.17,6.3-.3l.493-.028c1.7-.1,3.359-.113,5.315-.113h3.852c4.05,0,8.235,0,12.353.1,1.9.039,4.4.11,6.857.283,1.293.089,2.6.22,3.873.354h.269c.957.092,1.942.188,2.913.269q1.191.1,2.381.2c1.549.138,3.31.294,5.014.393l.517.032c.868.05,1.857.11,2.8.113h5.057c4.355,0,8.827,0,13.228.025,5.138.028,9.734.149,14.057.354,1.184.06,2.452.12,3.706.142H315c.829,0,1.662,0,2.48-.025,2.8-.042,5.142-.106,7.367-.195.911-.036,1.843-.092,2.665-.142,1.446-.089,2.938-.177,4.412-.188h7.3c4.288-.028,9.369-.092,14.528-.354l1.159-.067c.95-.053,1.956-.113,2.952-.149.794-.028,1.605-.039,2.388-.05h.315c.454,0,.907,0,1.357-.021,2.406-.053,5.209-.135,7.983-.468,1.7-.234,3.125-.457,4.56-.779.84-.188,1.665-.4,2.449-.631a22.147,22.147,0,0,0,2.339-.84,12.347,12.347,0,0,0,2.013-1.063,14.47,14.47,0,0,0,1.719-1.857c.67-.907,1.3-1.832,1.772-2.537a20.982,20.982,0,0,0,1.648-2.8,14.88,14.88,0,0,0,.8-2.817c.074-.432.152-.868.23-1.3l.064-.354.053-.291c.092-.5.181-1.006.269-1.51.032-.2.06-.393.092-.592l.018-.12c.039-.276.081-.553.131-.829.082-.471.184-.989.333-1.676.241-1.116.514-2.222.748-3.189a21.436,21.436,0,0,1,.935-2.721l.085-.216a30.819,30.819,0,0,1,1.478-3.189,10.634,10.634,0,0,1,1.417-1.991,10.875,10.875,0,0,1,1.474-1.322l.035-.028c.659-.524,1.375-1.063,1.952-1.478l.216-.163.758-.563.393-.294.287-.216a1.194,1.194,0,0,1,.709-.205,1.6,1.6,0,0,1,.422.053A1.488,1.488,0,0,1,400.34,1130a1.6,1.6,0,0,1-.684.89l-.184.138-.184.138a1.314,1.314,0,0,1-.046.223l-.135.425c-.177.553-.376,1.18-.528,1.79s-.3,1.311-.418,1.988c-.1.893-.149,1.8-.2,2.686v.074l-.053.964c-.074,1.212-.2,2.48-.379,3.876a54.143,54.143,0,0,0-.4,6.733c0,1.534.018,3.094.039,4.607v.117l.025,1.665v.578a24.144,24.144,0,0,1-.053,2.626,29.95,29.95,0,0,1-.5,3.458,15.8,15.8,0,0,1-1.215,3.466l-.046.1h.032a.858.858,0,0,1,.227.032.954.954,0,0,1,.567.432.967.967,0,0,1,.1.709.914.914,0,0,1-.436.567c-.709.3-1.4.592-2.1.879l-.163.071-.354.131a13.323,13.323,0,0,1-2.714,2.154,15.325,15.325,0,0,1-3.494,1.3,30.725,30.725,0,0,1-7.119.978c-2.247.085-4.4.106-6.995.124h-3.338c-1.339-.035-2.658-.1-3.784-.163-4.886-.266-9.791-.333-13.944-.354-3.986-.028-8.04-.032-11.959-.035H301.991c-1.708,0-3.43.092-5.1.181l-1.747.089c-4.823.223-9.737.266-14.362.294-3.958.021-8.288.032-14.036.032H233.775c-.819,0-1.556.028-2.254.06h-.184c-2.289.1-4.656.205-6.974.4-2.938.245-5.181.393-7.268.489-2.027.089-4.174.149-6.757.181-2.739.039-5.4.046-8.82.046H188.972a31.05,31.05,0,0,1-3.416-.152q-1.258-.021-2.519-.06c-1.772-.053-3.823-.128-5.85-.354a13.152,13.152,0,0,1-3-.609l-.17-.057a12.571,12.571,0,0,1-1.417-.542,7.015,7.015,0,0,1-1.272-.772,6.089,6.089,0,0,1-.939-.815c-.28-.315-.532-.656-.748-.95a8.048,8.048,0,0,1-.6-.889,14.957,14.957,0,0,1-1.226-2.8,27.011,27.011,0,0,1-.709-2.8c-.057-.294-.1-.6-.138-.893-.021-.156-.043-.315-.067-.468-.089-.581-.177-1.2-.22-1.828a7.724,7.724,0,0,1,0-.812c0-.113,0-.22,0-.33q0-.592.043-1.18a31.887,31.887,0,0,1,.326-3.189l.159-.985v-.057l.021-.142c.046-.507.064-1.045.082-1.478v-.117c0-.354.028-.709.05-1.038.06-.84.149-1.747.28-2.771a20.831,20.831,0,0,0,.163-2.619v-3.6c0-1.534,0-3.033-.021-4.539s-.064-3.214-.259-4.989c-.106-.68-.241-1.361-.354-2.02v-.064l-.071-.354c-.035-.177-.067-.354-.1-.525-.053-.3-.11-.6-.181-.9a9.854,9.854,0,0,0-.354-1.123,13.108,13.108,0,0,0-1.251-2.1,12.217,12.217,0,0,0-1.3-1.251,28.629,28.629,0,0,0-3.544-2.169c-1.354-.709-2.75-1.325-3.937-1.836-1.276-.517-2.427-.943-3.519-1.3a39.668,39.668,0,0,0-4-1.038c-2.651-.563-5.429-.978-7.877-1.339l-.23-.032-.188-.025c-1.336-.177-2.718-.354-4.082-.5h-.656c-1.605,0-3.724-.028-5.857-.1-.868-.025-1.878-.064-2.835-.181l-.3-.035a9.709,9.709,0,0,1-3.419-.808,2.54,2.54,0,0,1-1.166-2.714c-.1-.078-.209-.163-.312-.248a3.8,3.8,0,0,1-.443-.454,8.453,8.453,0,0,1-.549-.709,3.479,3.479,0,0,1-.684-2.388l.018-.138c.035-.269.071-.546.124-.818a4.471,4.471,0,0,1,.319-.918,2.048,2.048,0,0,1,.709-.79,2.126,2.126,0,0,1,1.063-.354l.209-.025.216-.025h.039a13.482,13.482,0,0,1,1.52-.159h.117a8.976,8.976,0,0,1,.925.064l.457.046c1.208.092,2.417.131,3.334.156.592,0,1.23.028,1.952.028h1.194c.167-.046.33-.092.5-.127a7.714,7.714,0,0,1,1.024-.138c.354-.028.709-.046,1.063-.057h.695a4.585,4.585,0,0,1,.617.035h.039l.184.028a2.4,2.4,0,0,1,.319-.021H137a.418.418,0,0,1,.354.581c.808-.082,1.541-.159,2.229-.245,1.063-.152,1.931-.3,2.743-.471.326-.067.656-.142.978-.22l.085-.035c.971-.432,1.974-.918,3.15-1.527a26.037,26.037,0,0,0,2.378-1.46l.535-.354c.56-.354,1.1-.744,1.626-1.109s.96-.67,1.449-.992l.06-.039c.886-.592,1.772-1.187,2.643-1.814a41.978,41.978,0,0,0,6.024-6.222c1.13-1.481,2.449-3.253,3.636-5.124a40.132,40.132,0,0,0,2.877-5.56,45.529,45.529,0,0,0,1.86-5.737c.521-2.045.953-4.1,1.311-5.847.11-.535.216-1.063.319-1.6.085-.418.167-.833.248-1.244v-.039c.181-.9.354-1.825.517-2.739.078-.485.163-.971.248-1.456s.156-.875.23-1.311c.1-.6.188-1.191.276-1.789.064-.415.124-.833.188-1.247.046-.3.092-.6.135-.893.113-.872.234-1.747.354-2.619.067-.556.128-1.113.188-1.669.043-.422.089-.843.135-1.262l.078-.677v-.089c.089-.751.177-1.527.245-2.293.035-.386.074-.773.113-1.159v-.12c.053-.489.1-.978.138-1.471.039-.563.064-1.137.085-1.694v-.071c0-.376.032-.751.05-1.127.053-1.024.142-2.062.23-3.065.078-.928.159-1.882.213-2.835.039-.656.053-1.322.067-1.97v-.036c0-.383,0-.762.028-1.145.032-.907.081-1.878.156-3.058s.177-2.282.283-3.395v-.057c.074-.815.152-1.634.216-2.452.035-.429.06-.857.089-1.283v-.152c.032-.482.06-.96.1-1.417.032-.379.064-.758.1-1.137v-.1c.053-.624.11-1.268.149-1.9.032-.521.05-1.063.064-1.566v-.149c0-.386.021-.772.039-1.159.039-.907.085-1.885.167-2.881.064-.812.138-1.623.216-2.434l.064-.709c.067-.709.11-1.417.152-2.126v-.113l.046-.748c.043-.709.1-1.417.167-2.1v.05c.1-1.162.209-2.342.227-3.5.025-1.836.064-3.806.184-5.779.057-.96.138-1.9.23-2.948.085-.974.131-1.995.131-3.115v-6.1c0-1.7.021-3.356.067-5.025a50.871,50.871,0,0,1,.454-5.354c.071-.524.181-1.063.284-1.559.057-.273.11-.521.156-.773l.05-.266a12.047,12.047,0,0,1,.5-2.027,9.064,9.064,0,0,1,1.793-3.072,9.413,9.413,0,0,1,1.57-1.3,5.734,5.734,0,0,1,1.141-.588c.319-.149.634-.323.939-.489l.461-.255a11.076,11.076,0,0,1,1.439-.627l.5-.167a4.588,4.588,0,0,1,.928-.159c.553-.1,1.063-.22,1.467-.319l.195-.05h.053c.17-.046.354-.089.51-.124.372-.071.744-.12,1.159-.17.535-.081,1.106-.188,1.793-.326s1.339-.252,2.232-.354l-.089.025,1.7-.283c.51-.085,1.035-.142,1.538-.2l.446-.092c.482-.082.957-.181,1.481-.294l.953-.2c.354-.064.709-.113,1.063-.163h.124l.418-.053c.524-.074,1.063-.152,1.595-.195.184,0,.383-.021.624-.021h5.8q5.131,0,10.276.021h.56c3.023,0,6.151.028,9.213.092l1.364.032,2.282.05.393-.078c1.2-.213,2.438-.379,3.678-.5,1.106-.106,2.31-.181,3.678-.23.485,0,.971-.028,1.456-.035.5-.138,1-.283,1.52-.439a1.977,1.977,0,0,1,.56-.078Zm-72.376,210.093c-.043-.124-.085-.248-.124-.376s-.089-.308-.124-.464a7.036,7.036,0,0,1-.631-.673c.117.241.241.485.376.709a8.677,8.677,0,0,0,.5.79Z" transform="translate(-120.297 -920.291)" fill="#f3eff5"/><path d="M117.4,987.54q2.19,0,4.38.046c1.46.028,2.916.1,4.369.22s2.835.322,4.224.517a26.692,26.692,0,0,1,2.9.482,12.675,12.675,0,0,1,2.906,1.1,7.713,7.713,0,0,1,.914.549,6.574,6.574,0,0,1,.953.815,7.59,7.59,0,0,1,.638.829,13.14,13.14,0,0,1,.709,1.141,12.04,12.04,0,0,1,.709,1.619c.149.4.259.808.379,1.212a20.754,20.754,0,0,1,.546,2.505c.163,1.021.354,2.034.475,3.062.1.936.2,1.875.287,2.81.078.833.1,1.676.145,2.509.071,1.268.206,2.53.354,3.791s.23,2.512.276,3.781a24.336,24.336,0,0,1-.1,3.664c-.025.216-.053.432-.081.648.074.514.142,1.024.206,1.534a13.925,13.925,0,0,1,.085,1.96,11.261,11.261,0,0,1-.156,1.417,8.212,8.212,0,0,1-.167.928c-.159.631-.354,1.247-.478,1.885a9.148,9.148,0,0,1-.741,2.275,3.125,3.125,0,0,1-1.956,1.57,2.835,2.835,0,0,1-1.587-.032c-.262-.085-.507-.209-.758-.319a3.471,3.471,0,0,1-1.244-1.219,4.9,4.9,0,0,1-.624-1.258c-.159-.354-.319-.734-.468-1.1a9.986,9.986,0,0,1-.319-1,7.562,7.562,0,0,1-.209-1.014c-.057-.354-.138-.73-.2-1.095a8.579,8.579,0,0,1-.149-1.417v-4.206c0-3.419,0-6.835-.028-10.251-.021-1.634-.05-3.271-.234-4.894a11.392,11.392,0,0,0-.524-2.087,8.382,8.382,0,0,0-.585-1.063,11.109,11.109,0,0,0-1.276-1.24,11.351,11.351,0,0,0-1.832-1.01q-.826-.319-1.673-.578a13.966,13.966,0,0,0-1.892-.408c-.865-.078-1.74-.043-2.608-.043h-2.441a48.309,48.309,0,0,0-5.216.188,26.431,26.431,0,0,1-3.125.393c-.751.025-1.5.067-2.254.152a20.829,20.829,0,0,1-4.387.8,7.177,7.177,0,0,1-.872-.053,4.756,4.756,0,0,1-1.176-.2,3.648,3.648,0,0,1-1.311-.744,3,3,0,0,1-.641-.808,6.1,6.1,0,0,1-.457-1.237,3.494,3.494,0,0,1-.135-1.467c.06-.489.117-.978.2-1.463a3.678,3.678,0,0,1,2.045-2.764,3.52,3.52,0,0,1,1.531-.354h.354c.244,0,.485,0,.709-.021a13.506,13.506,0,0,0,1.463-.1,24.793,24.793,0,0,1,2.934-.478c1-.05,1.995-.113,2.991-.23.709-.1,1.446-.2,2.172-.241h2.08Zm16.683,6.874c.142.106.28.22.418.333h0c-.064-.064-.124-.131-.191-.191a1.143,1.143,0,0,0-.227-.138Zm2.64,32.09-.028.035.028-.032Z" transform="translate(144.281 -939.299)" fill="#f3eff5"/><path d="M39.617,1034.4l.709.227q.23,1.378.464,2.743c-.4-1-.8-2-1.23-2.987h.06Z" transform="translate(267.917 -969.541)" fill="#f3eff5"/><path d="M116.276,1014.987c0,.177-.025.354-.039.535-.248-.609-.493-1.222-.737-1.832a1.311,1.311,0,0,1,.776,1.3Z" transform="translate(165.519 -956.183)" fill="#f3eff5"/></g><g transform="translate(804.199 89.37)"><path d="M5891.555,3827.852v.165c0,9.444-.578,19.26-.042,28.621-.907.907-6.352.041-7.5.371.783-9.939-.66-20.043.329-29.281v-.083c.289-.041,1.32.083,1.691.083.99.041,2.063.165,4.536.124Z" transform="translate(-5883.211 -3826.697)" fill="#f3eff5"/><path d="M5930.088,3834.762a24.243,24.243,0,0,0-5.032,0h-.125c0,.041-.041.082-.041.124-.165.783-.124,3.794.207,21.817v.083c-2.021.33-4.784-.042-6.764.288-.123-.494.372-6.6-.289-21.981l-.041-.042c-1.278-.659-4.289-.288-4.949-.495a28.024,28.024,0,0,1-.165-6.475c0-.042-.042-.042-.042-.083a153.427,153.427,0,0,1,17.4.371A33.488,33.488,0,0,1,5930.088,3834.762Z" transform="translate(-5901.538 -3826.885)" fill="#f3eff5"/><path d="M6020.363,3854.006c-.33,1.2-1.856,1.237-3.134,1.237h-.206c-1.98,0-2.887-.082-4.5-1.608a11.677,11.677,0,0,1-5.9,1.608c-5.444,0-8.289-4.7-8.289-9.114,0-2.928,2.021-5.856,4.124-7.836-1.319-1.773-3.175-4.5-3.175-7.011,0-3.505,4-6.228,7.959-6.228,4.207,0,7.093,2.969,7.093,6.269,0,2.021-1.155,3.63-2.185,5.238-.331.495-.661.949-.95,1.444a1.631,1.631,0,0,0-.288.536c0,.289-.372,1.443,1.732,4.207a3.071,3.071,0,0,0,.413-1.649c.123-1.031.618-1.9,2.391-1.9h2.929c.949,0,1.526.248,1.526,1.526a10.3,10.3,0,0,1-1.2,4.413v-.041c-.123.288-.206.495-.329.866-.125.165-.248.5-.413.784a7.6,7.6,0,0,0-.7,1.649c0,.33.578.866,1.072,1.526v-.041a8.676,8.676,0,0,1,2.062,3.547v.37Zm-10.929-5.155c0-.659,1.443-6.145-3.258-5.485-1.031.124-1.773,2.309-1.567,3.588a2.51,2.51,0,0,0,2.68,2.516,6.972,6.972,0,0,0,1.114-.124A6.085,6.085,0,0,0,6009.434,3848.851Zm-3.96-17.445c0,1.073.743,3.217,1.279,3.093v.041c.99-.165,1.32-1.98,1.32-3.959,0-.494-.206-.866-.825-.866A1.567,1.567,0,0,0,6005.474,3831.406Z" transform="translate(-5955.936 -3825.055)" fill="#f3eff5"/><path d="M5901.248,3973.82a9.436,9.436,0,0,1,.371,2.6,53.765,53.765,0,0,1-.577,7.753c0,.041-.041.041-.041.083a29.382,29.382,0,0,1-5.238,8.743c-3.629.124-7.382.124-10.847.124l-.041.042c-1.2-8.7-.453-18.724-.659-28.292.041-.041.082-.124.124-.165,3.134-.783,6.764-.289,9.938-.412a7.972,7.972,0,0,1,4.5,3.464A18.618,18.618,0,0,1,5901.248,3973.82Zm-5.279,3.753c-.33-1.691-.824-3.753-2.681-4.413a9.746,9.746,0,0,0-3.093.041h-.124v.165c.207,2.97-.123,6.97.083,10.682.618.536,1.814.371,2.8.247.29.042.454-.124.742-.247a4.324,4.324,0,0,0,1.279-1.32A6.453,6.453,0,0,0,5895.969,3977.573Z" transform="translate(-5883.337 -3913.569)" fill="#f3eff5"/><path d="M5958.813,3987.975a16.864,16.864,0,0,1-.33,5.4c-5.608-.041-11.589.371-16.909-.083,0-9.567-.5-18.764.041-28.208,6.393-.33,17.074-.495,17.074-.247a39.592,39.592,0,0,1,0,5.855v.042c-3.5.784-7.175.165-10.8.5h-.124l-.041.041c.041,1.609-.331,3.341.041,4.825l.041.041c1.649.125,3.382.083,5.073.125v.041a43.946,43.946,0,0,1,.082,5.732c-1.691.454-4.413,0-4.99.454a21.562,21.562,0,0,0,0,5.155l.041.042c3.629,0,7.053.329,10.806.206Z" transform="translate(-5919.706 -3913.868)" fill="#f3eff5"/><path d="M6013.817,3973.861a14.883,14.883,0,0,1-6.186-.041c.659-3.01-4.7-4.124-5.156-1.031a2.535,2.535,0,0,0,0,1.114c.454,1.32,1.526,1.609,2.68,1.773a10.08,10.08,0,0,1,7.135,4.331,8.657,8.657,0,0,1,.66,8.866c-1.32,3.382-4.578,4.867-7.959,4.743-4.826-.124-10.063-3.217-9.733-8.455v-.248a53.606,53.606,0,0,1,6.31-.041c.207,3.5,6.228,3.587,5.567-.248-.329-2.639-3.587-3.01-5.9-3.464a6.021,6.021,0,0,1-2.805-1.4c-5.072-4.825-2.557-12.332,2.722-14.517a12.566,12.566,0,0,1,9.156.454c2.639,1.36,4.33,4.042,3.546,8.165Z" transform="translate(-5953.967 -3913.777)" fill="#f3eff5"/><path d="M6065.408,3963.765v.166c0,9.444-.577,19.26-.041,28.621-.907.907-6.352.041-7.506.371.784-9.939-.66-20.043.33-29.282v-.082c.288-.041,1.319.082,1.689.082.991.042,2.063.166,4.538.124Z" transform="translate(-5993.765 -3913.124)" fill="#f3eff5"/><path d="M6104.96,3978.694h.082l.042.041a33.628,33.628,0,0,1,0,9.32,5.4,5.4,0,0,1-3.918,4.908c-2.722.783-6.1,1.4-8.742.289-2.186-.949-3.218-2.516-3.877-4.867a22.616,22.616,0,0,1-.5-2.887,62.175,62.175,0,0,1-.412-9.444,39.528,39.528,0,0,1,.412-5.4c.289-1.815.825-3.629,2.433-4.743a7.561,7.561,0,0,1,4-1.526c6.145-.784,11.341,2.268,10.557,8.99l-.041.248c-.123.165-.453.123-1.32.165a24.506,24.506,0,0,1-3.876-.124c-.33-1.114-1.2-3.422-2.8-3.422-.949-.042-1.856-.206-2.516.453a3.768,3.768,0,0,0-.454,1.114c-.783,2.639-.948,7.754-.618,11.877.123,1.2.329,2.845,1.36,3.67a2.857,2.857,0,0,0,.949.371,5.453,5.453,0,0,0,2.557-.371,2.129,2.129,0,0,0,1.278-1.485c.125-.454.371-2.35.042-2.475-.66-.124-2.516.125-3.051-.082-.207-1.774.041-2.433-.166-4.33v-.042c0-.041,0-.041.042-.041a.128.128,0,0,0,.083-.041C6097.908,3977.993,6103.847,3978.694,6104.96,3978.694Z" transform="translate(-6012.698 -3913.578)" fill="#f3eff5"/><path d="M6158.341,3992.629c-1.815-4.083-3.712-7.918-4.991-11.424l-.412-1.237c-.206-.619-.412-1.237-.536-1.237-.165,0-.289,5.856-.289,10.475,0,1.279,0,2.475.042,3.423a6.811,6.811,0,0,1-1.814.206c-1.32,0-2.681-.247-3.959-.247V3989.7c0-5.238-.124-9.733-.124-14.888,0-3.795.082-7.547.371-11.053a8.6,8.6,0,0,1,1.856-.165c.7,0,3.423.165,3.423.412.783,2.021,1.154,2.31,2.145,4.619.33.783,3.34,6.887,3.464,6.887a6.115,6.115,0,0,0,.289-2.268c0-2.186-.124-4-.124-5.98,0-1.155.042-2.31.083-3.671a17.3,17.3,0,0,1,2.968-.247,13.31,13.31,0,0,1,2.722.247v13.28c.042,2.309.042,4.7.042,7.052,0,1.609-.042,3.052-.042,4.578,0,1.113.042,2.186.042,3.3v.825a3.15,3.15,0,0,1-1.361.206C6161.022,3992.835,6159.455,3992.629,6158.341,3992.629Z" transform="translate(-6049.997 -3912.995)" fill="#f3eff5"/><path d="M5899.168,4106.589a24.277,24.277,0,0,0-5.032,0h-.124c0,.042-.041.083-.041.124-.164.783-.124,3.794.207,21.816v.083c-2.021.33-4.784-.041-6.764.289-.123-.495.371-6.6-.289-21.981l-.041-.042c-1.278-.66-4.289-.289-4.949-.495a28.014,28.014,0,0,1-.165-6.474c0-.042-.042-.042-.042-.083a153.6,153.6,0,0,1,17.4.372A33.489,33.489,0,0,1,5899.168,4106.589Z" transform="translate(-5881.876 -3999.74)" fill="#f3eff5"/><path d="M5956.394,4128.5c-1.9.33-4.412.123-5.774.248h-.04c-.537-3.671-.166-7.836-.619-11.383l-.042-.042a11.709,11.709,0,0,0-4.784.083c-.33,3.794.289,7.588-.247,11.053-1.361.783-4.62-.29-5.609.248-.331-4.661-.743-20.333-.577-28.746v-.041h.123c1.649.33,3.671-.33,5.238.124.5,3.794.206,7.341.865,10.846h.042a14.659,14.659,0,0,0,4.453-.041h.042a77.635,77.635,0,0,0,.165-10.763,18.038,18.038,0,0,1,5.65-.454Z" transform="translate(-5917.988 -3999.632)" fill="#f3eff5"/><path d="M6005.041,4099.679v.165c0,9.444-.577,19.26-.042,28.621-.907.907-6.351.041-7.506.371.784-9.939-.66-20.043.33-29.281v-.083c.29-.041,1.32.083,1.691.083.99.042,2.062.166,4.537.124Z" transform="translate(-5955.377 -3999.552)" fill="#f3eff5"/><path d="M6039.873,4128.543c-1.814-4.083-3.712-7.918-4.991-11.424l-.412-1.237c-.206-.619-.413-1.238-.537-1.238-.164,0-.288,5.857-.288,10.476,0,1.279,0,2.476.042,3.423a6.814,6.814,0,0,1-1.814.207c-1.319,0-2.681-.248-3.959-.248v-2.888c0-5.237-.124-9.732-.124-14.887,0-3.794.083-7.547.371-11.053a8.651,8.651,0,0,1,1.856-.165c.7,0,3.422.165,3.422.412.785,2.021,1.155,2.31,2.145,4.619.331.784,3.34,6.887,3.465,6.887a6.122,6.122,0,0,0,.288-2.268c0-2.186-.123-4-.123-5.98,0-1.154.041-2.31.083-3.67a17.291,17.291,0,0,1,2.969-.248,13.314,13.314,0,0,1,2.722.248v13.279c.041,2.31.041,4.7.041,7.052,0,1.608-.041,3.051-.041,4.578,0,1.113.041,2.186.041,3.3v.825a3.131,3.131,0,0,1-1.361.207C6042.554,4128.75,6040.987,4128.543,6039.873,4128.543Z" transform="translate(-5974.662 -3999.423)" fill="#f3eff5"/><path d="M6103.021,4129.154a26.6,26.6,0,0,1-5.732.083c-2.31-2.64-3.96-7.712-5.691-10.764-.124,3.175.124,7.547.124,10.64a16.413,16.413,0,0,1-6.021,0c-.454-9.444.124-19.012.082-28.621,1.814-.041,3.754.083,5.527.083.123,3.134-.042,6.763.082,9.9,0,.042.082-.124.206-.248,2.309-3.01,3.464-6.434,5.774-9.691,1.772.124,3.835-.165,5.607.124-1.319,4.619-5.031,9.238-7.011,13.857Z" transform="translate(-6011.376 -4000.2)" fill="#f3eff5"/><path d="M6150.918,4099.679v.165c0,9.444-.578,19.26-.041,28.621-.907.907-6.352.041-7.506.371.784-9.939-.66-20.043.33-29.281v-.083c.289-.041,1.32.083,1.691.083.99.042,2.062.166,4.537.124Z" transform="translate(-6048.141 -3999.552)" fill="#f3eff5"/><path d="M6185.75,4128.543c-1.815-4.083-3.711-7.918-4.99-11.424l-.412-1.237c-.207-.619-.413-1.238-.537-1.238-.165,0-.289,5.857-.289,10.476,0,1.279,0,2.476.042,3.423a6.807,6.807,0,0,1-1.814.207c-1.319,0-2.681-.248-3.958-.248v-2.888c0-5.237-.124-9.732-.124-14.887,0-3.794.082-7.547.371-11.053a8.648,8.648,0,0,1,1.856-.165c.7,0,3.422.165,3.422.412.783,2.021,1.154,2.31,2.145,4.619.33.784,3.341,6.887,3.464,6.887a6.119,6.119,0,0,0,.289-2.268c0-2.186-.124-4-.124-5.98,0-1.154.042-2.31.083-3.67a17.288,17.288,0,0,1,2.968-.248,13.315,13.315,0,0,1,2.722.248v13.279c.042,2.31.042,4.7.042,7.052,0,1.608-.042,3.051-.042,4.578,0,1.113.042,2.186.042,3.3v.825a3.135,3.135,0,0,1-1.361.207C6188.431,4128.75,6186.864,4128.543,6185.75,4128.543Z" transform="translate(-6067.425 -3999.423)" fill="#f3eff5"/><path d="M6247.668,4114.607h.082l.042.041a33.632,33.632,0,0,1,0,9.321,5.4,5.4,0,0,1-3.918,4.908c-2.722.784-6.1,1.4-8.743.289-2.186-.948-3.217-2.515-3.877-4.866a22.631,22.631,0,0,1-.495-2.887,62.111,62.111,0,0,1-.412-9.444,39.53,39.53,0,0,1,.412-5.4c.289-1.814.824-3.629,2.433-4.743a7.546,7.546,0,0,1,4-1.526c6.145-.784,11.341,2.268,10.557,8.991l-.041.247c-.124.166-.453.124-1.32.166a24.541,24.541,0,0,1-3.876-.124c-.33-1.113-1.2-3.423-2.8-3.423-.949-.041-1.856-.207-2.516.453a3.773,3.773,0,0,0-.454,1.114c-.783,2.64-.948,7.753-.618,11.877.124,1.2.33,2.845,1.36,3.671a2.864,2.864,0,0,0,.949.371,5.461,5.461,0,0,0,2.557-.371,2.133,2.133,0,0,0,1.278-1.485c.124-.453.371-2.351.042-2.475-.66-.124-2.516.125-3.052-.082-.207-1.773.041-2.434-.165-4.331v-.042c0-.041,0-.041.042-.041a.127.127,0,0,0,.082-.041C6240.615,4113.907,6246.554,4114.607,6247.668,4114.607Z" transform="translate(-6103.445 -4000.005)" fill="#f3eff5"/></g></g></g></svg>