<svg xmlns="http://www.w3.org/2000/svg" xmlns:xlink="http://www.w3.org/1999/xlink" width="1080" height="1080" viewBox="0 0 1080 1080"><defs><clipPath id="b"><rect width="1080" height="1080"/></clipPath></defs><g id="a" clip-path="url(#b)"><text transform="translate(63 180)" fill="#f3eff5" font-size="70" font-family="LondrinaSolid-Light, Londrina Solid" font-weight="300" letter-spacing="0.01em"><tspan x="0" y="0">ANSPRUCH UND VERSPRECHEN</tspan></text><g transform="translate(897.87 25.055)"><path d="M1540.63,794.017l2.99-2.385.341-.277-.9-.625Z" transform="translate(-1389.87 -790.73)" fill="#f3eff5"/><path d="M1305.606,1002.568a35.381,35.381,0,0,0-6.149,1,30.865,30.865,0,0,0-5.584,2.076,32.067,32.067,0,0,0-4.538,2.906c-.738.525-1.475,1.046-2.193,1.6a29.981,29.981,0,0,0-2.441,2.117,18.77,18.77,0,0,0-1.816,2.093,15.914,15.914,0,0,0-1.66,2.534q-1.263,2.538-2.405,5.139a25.885,25.885,0,0,0-1.9,5.736c-.152.874-.293,1.76-.4,2.642a19.7,19.7,0,0,0-.084,3.151c.04.958.14,1.924.236,2.878s.228,1.836.4,2.746a26.311,26.311,0,0,0,.673,2.878q.353,1.331.766,2.646a22.834,22.834,0,0,0,1.2,2.9c.425.91.874,1.8,1.355,2.674a55.019,55.019,0,0,0,3.067,4.951,37.616,37.616,0,0,0,4.053,4.618,1.74,1.74,0,0,0,2.369-2.55c-.99-1.006-1.956-2.032-2.882-3.095-1.11-1.383-2.1-2.838-3.079-4.318a39.14,39.14,0,0,1-2.666-4.839c-.445-1.09-.8-2.2-1.151-3.327a34.84,34.84,0,0,1-.9-3.371,29.617,29.617,0,0,1-.457-3.343c-.052-.629-.12-1.259-.152-1.892s0-1.179.024-1.768c.092-.894.256-1.772.4-2.662a17.815,17.815,0,0,1,.726-2.842,47.965,47.965,0,0,1,2.036-4.546,37.983,37.983,0,0,1,2.313-4.137,21.807,21.807,0,0,1,1.447-1.744c.513-.541,1.167-1.159,1.788-1.7,1.118-.89,2.305-1.7,3.5-2.485.621-.4,1.235-.822,1.856-1.235a20.242,20.242,0,0,1,2.028-1.159,28.937,28.937,0,0,1,13.614-2.493,12.715,12.715,0,0,1,1.551.237q.893.194,1.764.477c.99.4,1.96.8,2.922,1.267a18.042,18.042,0,0,1,2.405,1.455c.842.641,1.668,1.315,2.449,2.032a24.452,24.452,0,0,1,2,2.161c.429.541.862,1.082,1.275,1.64a11.889,11.889,0,0,1,.994,1.656,31.3,31.3,0,0,1,1.159,3.608c.321,1.151.585,2.309.8,3.484a17.432,17.432,0,0,1,.216,3.48,1.145,1.145,0,0,1,.02-.261l-.072.986c-.068.645-.156,1.295-.265,1.932-.128.75-.229,1.5-.349,2.249-.052.333-.128.661-.208.99s-.148.742-.22,1.11a15.471,15.471,0,0,1-.509,1.936c-.272.726-.553,1.443-.8,2.177-.208.629-.4,1.263-.617,1.888-.493,1.3-1.078,2.566-1.7,3.816-.349.706-.681,1.415-1.078,2.093-.309.525-.661,1.03-1.01,1.531-.252.333-.513.657-.8.974s-.617.641-.93.958c-.557.569-1.135,1.122-1.736,1.648a8.44,8.44,0,0,1-.866.589,10.183,10.183,0,0,1-1.659.425l-.473.076-.521.092a2.065,2.065,0,0,0,.722,4.009c.549-.04,1.094-.092,1.64-.148a10.376,10.376,0,0,0,1.676-.313,5.921,5.921,0,0,0,1.459-.689,11.523,11.523,0,0,0,1.379-1.082c.333-.281.641-.589.958-.89.557-.533,1.09-1.1,1.6-1.66a19.837,19.837,0,0,0,1.7-2.261c-.116.16-.233.325-.345.489l.289-.4c.329-.465.661-.93.958-1.415.237-.4.441-.8.646-1.2.4-.774.778-1.551,1.151-2.341s.73-1.6,1.054-2.429c.4-.982.709-2,1.05-2.982.325-.866.669-1.724.946-2.606.249-.8.349-1.6.533-2.429a21.7,21.7,0,0,0,.365-2.433c.1-.862.217-1.724.325-2.582.072-.569.092-1.139.12-1.708a13.439,13.439,0,0,0,0-1.555,28.3,28.3,0,0,0-.4-3.207c-.168-.9-.337-1.812-.557-2.706s-.5-1.868-.766-2.806a15.152,15.152,0,0,0-2.7-5.284,25.752,25.752,0,0,0-4.41-4.55c-.882-.665-1.752-1.339-2.694-1.932a20.826,20.826,0,0,0-2.405-1.3,25.7,25.7,0,0,0-5.937-1.972,19.635,19.635,0,0,0-3.031-.245h-.172c-.77,0-1.543.072-2.3.136ZM1281.75,1044.7c.04.088.084.176.124.269C1281.834,1044.881,1281.79,1044.792,1281.75,1044.7Z" transform="translate(-1231.57 -917.559)" fill="#f3eff5"/><path d="M1298.224,1150.419a28.385,28.385,0,0,0-2.714,2.225,2.416,2.416,0,0,0-.325.425,3.685,3.685,0,0,0-.633,1.2,3.783,3.783,0,0,0,0,2.081,5.091,5.091,0,0,0,1.455,2.293,9.921,9.921,0,0,0,1.026.8,6.641,6.641,0,0,0-1.307,1.2,4.454,4.454,0,0,0-.942,2.084,6.794,6.794,0,0,0,0,1.6,5.91,5.91,0,0,0,.253,1.519,4.41,4.41,0,0,0,1.143,1.708,5.924,5.924,0,0,0,3.063,1.491c.5.1,1,.1,1.5.176a12.666,12.666,0,0,0,2.129.265,2.133,2.133,0,0,0,.341-4.217c-.521-.092-1.046-.188-1.575-.233s-1.119-.056-1.68-.072a4.952,4.952,0,0,1-.722-.128l-.269-.124-.281-.257a8.186,8.186,0,0,1-.072-1.086v-.052c.02-.044.044-.088.068-.132l.192-.192a8.636,8.636,0,0,1,.862-.489c.457-.18.926-.3,1.4-.445.249-.076.505-.14.754-.212a3.92,3.92,0,0,0,1.347-.633,2.763,2.763,0,0,0,.8-.882,2.1,2.1,0,0,0,.309-1.227,2.593,2.593,0,0,0-.321-1.074,2.3,2.3,0,0,0-.922-.882,9.829,9.829,0,0,0-2.281-.653l-.958-.345a4.564,4.564,0,0,1-.677-.325,6.672,6.672,0,0,1-.593-.525h0l.257-.245,1.543-1.2a2.174,2.174,0,0,0,.906-1.295,2.036,2.036,0,0,0-1.56-2.405,2.258,2.258,0,0,0-.445-.044,1.761,1.761,0,0,0-1.066.313Zm.2,4.454a.332.332,0,0,0,.032.172A1.331,1.331,0,0,0,1298.425,1154.873Zm.252.245-.112.164h0c.036-.056.076-.108.116-.16Zm-.2.337v.2A1.731,1.731,0,0,1,1298.473,1155.454Zm.056,8.791c0,.036.036.076.052.112Zm.08.02v0Z" transform="translate(-1242.352 -1006.048)" fill="#f3eff5"/><path d="M1330.27,1134.157c-.437,0-.874.056-1.307.092-.89.068-1.772.224-2.658.313s-1.848.188-2.774.188H1320.7c-1.034.056-2.073.124-3.111.092-.718-.072-1.431-.152-2.149-.176-.645-.024-1.291-.072-1.936-.116-.934-.08-1.872-.14-2.806-.176a13.2,13.2,0,0,0-3.127.285c-2.277.457-4.2,1.86-6.077,3.159a2.834,2.834,0,0,0-1.2,1.744,2.738,2.738,0,0,0,4.137,2.89,31.019,31.019,0,0,1,3.319-2.121,8.828,8.828,0,0,1,1.2-.353,15.628,15.628,0,0,1,2.253-.028c1.571.144,3.139.3,4.714.4a20.1,20.1,0,0,0,2.453.144c.4,0,.782-.068,1.171-.1s.742-.064,1.11-.112c1.343-.172,2.71-.156,4.061-.273s2.618-.3,3.925-.485c.613-.084,1.2-.168,1.84-.216h1.543c-.14.08-.281.16-.425.236a58.2,58.2,0,0,1-5.724,2.1,4.58,4.58,0,0,0-2.229,1.07,2.337,2.337,0,0,0-.477,2.373c.08.172.16.349.245.521a6.815,6.815,0,0,0,.465.553,5.611,5.611,0,0,0,.642.465,3.645,3.645,0,0,0,.505.244,16.816,16.816,0,0,0,2.53.762c.529.14,1.054.3,1.571.469.14.052.277.1.4.16a4.585,4.585,0,0,1,.8.4,5.505,5.505,0,0,1,.433.433h0c-.024.148-.056.293-.092.441l-.032.06c-.136.152-.273.3-.4.437a13.343,13.343,0,0,1-1.692,1.046,10.565,10.565,0,0,1-1.263.4l-.377.112a2.58,2.58,0,0,0-.982.609,2.04,2.04,0,0,0-.313,2.5,2.979,2.979,0,0,0,2.405,1.259,3.123,3.123,0,0,1,.473.064c-.926.108-1.864.14-2.806.2a1.6,1.6,0,0,0-1.022,2.806,1.7,1.7,0,0,0,1.2.433c.882.024,1.756.04,2.634,0a8.1,8.1,0,0,0,2.189-.4,3.411,3.411,0,0,0,2.12-2.329,3.512,3.512,0,0,0-.04-2.285,3,3,0,0,0-.4-.686,12.147,12.147,0,0,0,.97-.742c.156-.132.3-.26.449-.4a5.877,5.877,0,0,0,.746-1.006c.048-.1.1-.2.148-.3.108-.285.212-.573.313-.858a9.277,9.277,0,0,0,.2-1.527,4.4,4.4,0,0,0-.16-1.114,4.319,4.319,0,0,0-.441-1.006,4.556,4.556,0,0,0-.686-.866,5.284,5.284,0,0,0-.621-.613,7.269,7.269,0,0,0-1.343-.87h-.024c.445-.164.886-.333,1.323-.509a8.439,8.439,0,0,0,2.562-1.515,8.087,8.087,0,0,0,1.479-1.836,4.637,4.637,0,0,0,.441-1.1,3.343,3.343,0,0,0,.12-.589,3.648,3.648,0,0,0-.962-3.091,5.483,5.483,0,0,0-.986-.754,5.822,5.822,0,0,0-1.2-.473c-.208-.076-.4-.14-.625-.2a8.472,8.472,0,0,0-2.129-.245h-1.295Zm.529,15.085a1.908,1.908,0,0,1,.036.208Zm.052,0c.028.06.056.12.08.18C1330.9,1149.362,1330.875,1149.3,1330.852,1149.242Zm-.1.024a.586.586,0,0,0,0,.08h0v-.088Zm0,.084v.12h0v-.112h0Zm0,.128Zm-.236.341-.06.08Zm-1.259,5.68c0,.052.02.1.024.152Zm.224.14c-.032.044-.06.088-.1.132Zm.112.657.084.1Z" transform="translate(-1245.84 -996.48)" fill="#f3eff5"/><path d="M1310.44,1188.047a1.371,1.371,0,0,0-.429,1.88c.529.766,1.054,1.535,1.6,2.285a11.558,11.558,0,0,0,1.231,1.459,8.181,8.181,0,0,0,1.311.974,7.028,7.028,0,0,0,1.676.709,11.627,11.627,0,0,0,2.405.429,15.373,15.373,0,0,0,2.682,0c1.531-.112,3.039-.449,4.558-.653s3.051-.5,4.582-.7c1.2-.16,2.433-.357,3.636-.621a1.639,1.639,0,0,0,.994-.838,1.692,1.692,0,0,0,.112-1.295,1.719,1.719,0,0,0-.834-.994,1.812,1.812,0,0,0-1.295-.112c-.429.1-.862.184-1.291.265-.758.124-1.515.224-2.269.349-.838.14-1.676.281-2.513.433-1.6.269-3.207.577-4.839.874-.617.1-1.239.176-1.864.241a12.894,12.894,0,0,1-1.8,0,10.306,10.306,0,0,1-2.121-.373,6.519,6.519,0,0,1-.966-.509,6.038,6.038,0,0,1-.758-.71c-.677-.87-1.291-1.788-1.92-2.7a1.423,1.423,0,0,0-1.171-.633,1.3,1.3,0,0,0-.709.208Z" transform="translate(-1251.578 -1028.63)" fill="#f3eff5"/><path d="M1336.717,1195.084a2.125,2.125,0,0,0-.986,1.411c-.136,1.391-.252,2.782-.509,4.157-.128.661-.253,1.323-.4,1.98a15.43,15.43,0,0,1-.457,1.547c-.136.317-.277.625-.441.93a6.26,6.26,0,0,1-.441.485q-.181.128-.373.241c-.229.088-.461.164-.694.232a5.991,5.991,0,0,1-.762.036l-.276-.06a3.659,3.659,0,0,1-1.235-.9c-.032-.044-.06-.092-.088-.136a1.075,1.075,0,0,1-.068-.224,23.145,23.145,0,0,1-.052-4.5,1.968,1.968,0,0,0-.645-1.383,2.024,2.024,0,0,0-2.866.1,2.176,2.176,0,0,0-.529,1.463c-.056,1.03-.08,2.052-.068,3.079,0,.449.056.9.1,1.347a10.432,10.432,0,0,0,.22,1.223,4.458,4.458,0,0,0,.457,1.082,5.863,5.863,0,0,0,.689.95,8.207,8.207,0,0,0,1.026.982,6.3,6.3,0,0,0,1.571.97,5.418,5.418,0,0,0,1.58.4,6.951,6.951,0,0,0,4.63-1.178,7.29,7.29,0,0,0,2.381-3.087,17.423,17.423,0,0,0,.649-1.828,13.572,13.572,0,0,0,.4-1.423c.176-.846.357-1.7.461-2.554a21.743,21.743,0,0,0,.152-3.576,2.221,2.221,0,0,0-3.391-1.764Z" transform="translate(-1261.174 -1032.79)" fill="#f3eff5"/><path d="M1317.978,1167.69a69.321,69.321,0,0,0-8.655,1.732,2.249,2.249,0,0,0-1.351,1.135,2.305,2.305,0,0,0,.982,3.107,2.442,2.442,0,0,0,1.756.152c2.089-.477,4.161-1.022,6.266-1.431a30.177,30.177,0,0,1,3.171-.349c1.231-.056,2.449-.028,3.676.036a24.254,24.254,0,0,0,3.147,0,17.723,17.723,0,0,0,3.913-.722,1.784,1.784,0,0,0,1.227-1.764,1.764,1.764,0,0,0-1.844-1.668c-.734.084-1.467.148-2.209.172-.637,0-1.275,0-1.912-.032-1.2-.112-2.365-.273-3.552-.373-.85-.072-1.7-.116-2.546-.116-.689,0-1.379.032-2.068.1Z" transform="translate(-1250.324 -1016.504)" fill="#f3eff5"/><path d="M1320.022,1065.408a6.235,6.235,0,0,0-.9.192,5.064,5.064,0,0,0-.8.373,3.337,3.337,0,0,0-.686.525,3.736,3.736,0,0,0-.734.91,6.413,6.413,0,0,0-.6,1.692,12.3,12.3,0,0,0-.1,3.255,16.037,16.037,0,0,0,1.6,5.552c.425.942.874,1.868,1.319,2.806a26.931,26.931,0,0,0,1.327,2.489c.489.806.966,1.568,1.491,2.321.313.445.669.866,1.018,1.287a7.137,7.137,0,0,1,.457.641c.188.285.373.561.537.858a10.906,10.906,0,0,1,.4,1.563c.188,1.2.265,2.405.357,3.64a1.768,1.768,0,1,0,3.528-.172c-.1-1.315-.184-2.63-.4-3.929a11.341,11.341,0,0,0-.477-2.1,11.217,11.217,0,0,0-1.175-2.2c-.289-.449-.653-.846-.954-1.283-.365-.525-.693-1.066-1.034-1.6a28.661,28.661,0,0,1-1.78-3.175c-.477-1.058-.934-2.117-1.391-3.183a14.809,14.809,0,0,1-.862-2.987,15.16,15.16,0,0,1-.116-2.3,8.313,8.313,0,0,1,.2-1.082l.052-.108.064-.04.1-.028a4.556,4.556,0,0,1,.469,0,7.211,7.211,0,0,1,.97.212,6.933,6.933,0,0,1,.986.5,9.476,9.476,0,0,1,1.062,1.022l.156.208a2,2,0,0,0,1.2.842,1.892,1.892,0,0,0,2-2.854,10.1,10.1,0,0,0-1.744-2.057,7.939,7.939,0,0,0-1.6-1.066,7.436,7.436,0,0,0-2.149-.665,6.4,6.4,0,0,0-1.038-.088,5.346,5.346,0,0,0-.718.048Zm.485,3.764-.076.064Zm-.313.313-.116.168A1.747,1.747,0,0,1,1320.195,1069.485Zm-.068.269a.138.138,0,0,0,0,.036A.138.138,0,0,1,1320.127,1069.754Zm2.1,8.9c0,.04.036.076.052.116C1322.283,1078.733,1322.247,1078.7,1322.231,1078.657Z" transform="translate(-1255.371 -955.28)" fill="#f3eff5"/><path d="M1199.275,1114.5c-2.594.726-5.175,1.463-7.729,2.321-1.255.4-2.489.894-3.728,1.363s-2.461.974-3.66,1.523l-2.173,1.006c-3.231,1.511-6.334,3.307-9.409,5.1a2.7,2.7,0,0,0,.874,4.927,2.85,2.85,0,0,0,2-.353c2.979-1.6,6.013-3.071,9.028-4.578,1.179-.537,2.353-1.066,3.556-1.559,1.4-.577,2.806-1.115,4.237-1.652,1.307-.5,2.654-.906,4.009-1.307,1.567-.473,3.143-.918,4.722-1.359a2.838,2.838,0,0,0-.89-5.548,3.06,3.06,0,0,0-.826.112Zm-17.695,6.414.4-.188.072-.036-.477.224Zm.477-.225.188-.084Zm2-.934.08-.036.585-.269Z" transform="translate(-1168.605 -984.642)" fill="#f3eff5"/><path d="M1166.152,1045.472a2.285,2.285,0,0,0-1.491,2.866,2.2,2.2,0,0,0,1.123,1.339q3.451,1.359,6.919,2.67c1.379.521,2.758,1.026,4.153,1.5q1.846.6,3.724,1.126c1.138.321,2.313.529,3.468.8.545.12,1.106.184,1.66.273s1.062.2,1.6.257c1.423.152,2.834.3,4.261.4s2.778.1,4.169.08a2.207,2.207,0,1,0-.217-4.41h-2.974c-.6,0-1.2-.068-1.812-.12-1.094-.124-2.2-.225-3.283-.4l-2.277-.4c-.533-.092-1.062-.237-1.6-.357s-1.114-.224-1.656-.4l-2.133-.633c-1-.3-2-.657-2.975-1.006-2.979-1.127-5.957-2.245-8.927-3.4l-.573-.208a2.45,2.45,0,0,0-.481-.052,2.246,2.246,0,0,0-.685.108Z" transform="translate(-1164.555 -943.309)" fill="#f3eff5"/><path d="M1272.074,924a2,2,0,0,0-1.876,2.073c.08,1.255.213,2.5.4,3.74.168,1.179.4,2.349.641,3.516.4,2,.914,4.009,1.5,5.985.329,1.1.661,2.2,1.03,3.3s.75,2.2,1.138,3.291c.361,1.01.746,2,1.126,3.007.433,1.135.982,2.229,1.507,3.315s1.042,2.169,1.559,3.255a1.924,1.924,0,0,0,1.275.89,2,2,0,0,0,2.373-1.535c0-.172.028-.345.044-.517a2.045,2.045,0,0,0-.3-.97q-.978-2.053-1.968-4.1c-.3-.694-.6-1.383-.862-2.093-.3-.8-.609-1.64-.894-2.465-.557-1.6-1.13-3.207-1.6-4.859s-.986-3.4-1.4-5.123-.8-3.391-1.135-5.1c-.2-1.243-.373-2.477-.473-3.732a2,2,0,0,0-1.972-1.876Z" transform="translate(-1227.847 -870.575)" fill="#f3eff5"/><path d="M1387.671,905.14c-1.01,1.92-2,3.844-2.95,5.809s-1.864,4.073-2.722,6.145c-1.7,4.117-3.163,8.334-4.67,12.523h0a.6.6,0,0,1-.052.148l-.229.629a2.49,2.49,0,0,0,3.187,2.894,2.365,2.365,0,0,0,1.459-1.227q1.2-3.355,2.405-6.723c1.094-2.926,2.177-5.861,3.359-8.751,1.295-3.171,2.566-6.358,3.969-9.481a2.161,2.161,0,0,0-.9-2.866,2.078,2.078,0,0,0-.962-.232,2.153,2.153,0,0,0-1.9,1.138Zm-10.114,23.852c-.032.08-.06.16-.088.241C1377.5,929.153,1377.524,929.073,1377.557,928.992Z" transform="translate(-1291.831 -858.599)" fill="#f3eff5"/><path d="M1459.347,985.231c-1.547,1.134-3.207,2.125-4.811,3.175s-3.079,2.036-4.614,3.059c-3.271,2.177-6.635,4.213-9.962,6.29a2.478,2.478,0,1,0,2.642,4.193c3.327-2.081,6.7-4.1,9.954-6.3,1.527-1.034,3.055-2.073,4.55-3.159a47.822,47.822,0,0,0,4.963-3.969,2.157,2.157,0,0,0,.244-2.614,2.285,2.285,0,0,0-1.888-1.018,1.856,1.856,0,0,0-1.086.341Z" transform="translate(-1328.864 -907.056)" fill="#f3eff5"/><path d="M1468.383,1083.668c-1.692.024-3.383.188-5.067.349-1.832.172-3.668.349-5.5.517a2.294,2.294,0,0,0,.229,4.582c3.508-.325,7.011-.718,10.531-.89,1.583-.076,3.167-.084,4.75-.136,1.784-.056,3.564-.148,5.352-.132a2,2,0,0,0,1.6-3.063A1.92,1.92,0,0,0,1479,1084a56.98,56.98,0,0,0-5.732-.365H1471.9c-1.167,0-2.337.02-3.508.036Z" transform="translate(-1338.946 -966.22)" fill="#f3eff5"/><path d="M1448.875,1143.994a1.791,1.791,0,0,0-1.227.569,1.811,1.811,0,0,0-.481,1.315,1.723,1.723,0,0,0,.573,1.231c1.527,1.106,3.055,2.221,4.654,3.231,1.5.95,3.027,1.84,4.574,2.714,2.938,1.656,5.961,3.167,8.964,4.7a1.649,1.649,0,0,0,1.519-2.926q-4.049-2.245-8.078-4.514-1.924-1.094-3.816-2.233c-1.167-.694-2.293-1.451-3.419-2.209-.649-.465-1.3-.934-1.948-1.4l-.4-.277a1.807,1.807,0,0,0-.838-.2Z" transform="translate(-1333.874 -1002.377)" fill="#f3eff5"/></g><text transform="translate(180 351)" fill="#f3eff5" font-size="62" font-family="LondrinaSolid-Light, Londrina Solid" font-weight="300" letter-spacing="0.024em"><tspan x="0" y="0">Potentiale der Mitarbeiter heben</tspan></text><text transform="translate(180 447)" fill="#f3eff5" font-size="62" font-family="LondrinaSolid-Light, Londrina Solid" font-weight="300" letter-spacing="0.024em"><tspan x="0" y="0">Prozesse und Geschäftsmodelle </tspan><tspan x="0" y="74">neu denken</tspan></text><text transform="translate(182 617)" fill="#f3eff5" font-size="62" font-family="LondrinaSolid-Light, Londrina Solid" font-weight="300" letter-spacing="0.024em"><tspan x="0" y="0">Digitale Technologien</tspan><tspan x="0" y="74">richtig nutzen</tspan></text><text transform="translate(182 816)" fill="#f3eff5" font-size="62" font-family="LondrinaSolid-Light, Londrina Solid" font-weight="300" letter-spacing="0.024em"><tspan x="0" y="0" xml:space="preserve">DIGITALE TRANSFORMATION  	</tspan><tspan x="0" y="74">GEMEINSAM GESTALTEN</tspan></text><g transform="translate(62.5 735.5)"><g transform="translate(0.5 -5.5)"><path d="M0,3,220.865,1.5C270.1,1.634,368.56,3,368.56,3l237.125-.75L685.63,1.5c12.2-.157,24.388-.539,36.585-.75L772.35,0c10.84.25,21.673.625,32.52.75l107.045.75" fill="none" stroke="#f3eef4" stroke-miterlimit="8" stroke-width="5"/></g></g><path d="M39.011,48.5h-13.5V35a3,3,0,0,0-3-3h-3a3,3,0,0,0-3,3V48.5H3a3,3,0,0,0-3,3v3a3,3,0,0,0,3,3H16.5v13.5a3,3,0,0,0,3,3h3a3,3,0,0,0,3-3v-13.5h13.5a3,3,0,0,0,3-3v-3A3,3,0,0,0,39.011,48.5Z" transform="translate(63 409)" fill="#f3eff5"/><path d="M39.011,48.5h-13.5V35a3,3,0,0,0-3-3h-3a3,3,0,0,0-3,3V48.5H3a3,3,0,0,0-3,3v3a3,3,0,0,0,3,3H16.5v13.5a3,3,0,0,0,3,3h3a3,3,0,0,0,3-3v-13.5h13.5a3,3,0,0,0,3-3v-3A3,3,0,0,0,39.011,48.5Z" transform="translate(63 579)" fill="#f3eff5"/><path d="M39.011,131.26H3a3.111,3.111,0,0,0-3,3.21v3.21a3.111,3.111,0,0,0,3,3.21h36.01a3.111,3.111,0,0,0,3-3.21v-3.21A3.111,3.111,0,0,0,39.011,131.26Zm0-19.26H3a3.111,3.111,0,0,0-3,3.21v3.21a3.111,3.111,0,0,0,3,3.21h36.01a3.111,3.111,0,0,0,3-3.21v-3.21A3.111,3.111,0,0,0,39.011,112Z" transform="translate(63 704.11)" fill="#f3eff5"/></g></svg>